<?xml version="1.0" standalone="no"?><!DOCTYPE svg PUBLIC "-//W3C//DTD SVG 1.1//EN" "http://www.w3.org/Graphics/SVG/1.1/DTD/svg11.dtd"><svg t="1504273061557" class="icon" style="" viewBox="0 0 1024 1024" version="1.1" xmlns="http://www.w3.org/2000/svg" p-id="8434" xmlns:xlink="http://www.w3.org/1999/xlink" width="48" height="48"><defs><style type="text/css"></style></defs><path d="M339.3 308.3h344c11 0 20-9 20-20s-9-20-20-20h-344c-11 0-20 9-20 20s9 20 20 20zM705.3 541.6L525.9 362.1c-4-4-9.3-5.9-14.6-5.8-5.3-0.1-10.6 1.8-14.6 5.8L317.3 541.6c-7.8 7.8-7.8 20.5 0 28.3 7.8 7.8 20.5 7.8 28.3 0l145.7-145.7V748c0 11 9 20 20 20s20-9 20-20V424.1L677 569.8c7.8 7.8 20.5 7.8 28.3 0s7.9-20.4 0-28.2z" fill="#bfbfbf" p-id="8435"></path></svg>